<svg width="25" height="25" viewBox="0 0 50 50" fill="none" xmlns="http://www.w3.org/2000/svg">
<g id="chat-typing-solid">
<path id="Color" fill-rule="evenodd" clip-rule="evenodd" d="M34.7719 24.4125C34.1969 24.4125 33.7188 24.2203 33.3344 23.8375C32.8563 23.4547 32.6641 22.975 32.6641 22.4C32.6641 21.825 32.8563 21.3469 33.3344 20.9625C33.7172 20.5797 34.1969 20.3875 34.7719 20.3875C35.25 20.3875 35.7297 20.5797 36.2094 20.9625C36.5922 21.3453 36.7844 21.825 36.7844 22.4C36.7844 22.975 36.5922 23.4531 36.2094 23.8375C35.7313 24.2203 35.2516 24.4125 34.7719 24.4125ZM25.9594 23.8391C25.5766 24.2219 25.0969 24.4141 24.5219 24.4141C23.9469 24.4141 23.4688 24.2219 23.0844 23.8391C22.7016 23.4563 22.5094 22.9766 22.5094 22.4016C22.5094 21.8266 22.7016 21.3484 23.0844 20.9641C23.4672 20.5813 23.9469 20.3891 24.5219 20.3891C25.0969 20.3891 25.575 20.5813 25.9594 20.9641C26.3422 21.3469 26.5344 21.8266 26.5344 22.4016C26.5344 22.9766 26.3422 23.4547 25.9594 23.8391ZM14.2734 24.4125C13.7953 24.4125 13.3156 24.2203 12.9328 23.8375C12.4547 23.4547 12.2625 22.975 12.2625 22.4C12.2625 21.825 12.4547 21.3469 12.9328 20.9625C13.3156 20.5797 13.7953 20.3875 14.2734 20.3875C14.8484 20.3875 15.3266 20.5797 15.8062 20.9625C16.1891 21.3453 16.3813 21.825 16.3813 22.4C16.3813 22.975 16.1891 23.4531 15.8062 23.8375C15.3281 24.2203 14.8484 24.4125 14.2734 24.4125ZM45.9781 2H3.06562C2.20312 2 1.4375 2.2875 0.8625 2.8625C0.2875 3.53281 0 4.20312 0 5.06562V37.7281C0 38.5906 0.2875 39.3563 0.8625 39.9313C1.4375 40.5063 2.20312 40.7938 3.06562 40.7938H26.9156C27.0109 40.7938 27.2031 40.8891 27.4906 40.9859L37.5484 48.5531C37.8359 48.8406 38.3141 48.9359 38.7938 48.9359C39.2719 48.9359 39.5594 48.8406 39.7516 48.7438C40.5172 48.2656 40.9016 47.6906 40.9016 46.9234V40.7938H45.9781C46.8406 40.7938 47.6063 40.5063 48.1813 39.9313C48.7563 39.3563 49.0438 38.5906 49.0438 37.7281V5.06562C49.0438 4.20312 48.7563 3.53281 48.1813 2.8625C47.6063 2.2875 46.8406 2 45.9781 2C45.9781 2 45.9781 2 45.9781 2Z" fill="black"/>
</g>
</svg>
