<svg width="20" height="20" viewBox="0 0 50 50" fill="none" xmlns="http://www.w3.org/2000/svg">
<g id="face-happy">
<path id="Color" fill-rule="evenodd" clip-rule="evenodd" d="M41.8594 7.18437C46.6484 11.9734 49.0438 17.7203 49.0438 24.5219C49.0438 31.3234 46.6484 37.0703 41.8594 41.8594C37.0703 46.6484 31.3234 49.0438 24.5219 49.0438C17.7203 49.0438 11.9734 46.6484 7.18437 41.8594C2.39531 37.0703 0 31.3234 0 24.5219C0 17.7203 2.39531 11.9734 7.18437 7.18437C11.9734 2.39531 17.7203 0 24.5219 0C31.3234 0 37.0703 2.39531 41.8594 7.18437ZM47.1281 24.5219C47.1281 19.9234 45.8828 15.7094 43.3922 11.8781C40.8062 8.14219 37.4531 5.36406 33.2391 3.54531C29.025 1.72656 24.7141 1.34219 20.2125 2.20469C15.7109 3.06719 11.7828 5.17344 8.52656 8.43125C5.36562 11.5922 3.25781 15.4234 2.39688 19.925C1.43906 24.4266 1.82188 28.8328 3.64219 33.0469C5.36563 37.2609 8.14375 40.6141 11.975 43.2C15.7109 45.7859 19.925 47.0312 24.5234 47.0312C30.75 47.0312 36.0172 44.8281 40.4234 40.4219C44.8297 36.1109 47.0328 30.7469 47.1281 24.5219ZM17.6266 23.5641V15.7094H19.6375V23.5641H17.6266ZM29.4078 23.5641V15.7094H31.4187V23.5641H29.4078ZM10.0594 30.7469C19.7344 31.6094 29.3125 31.6094 38.9859 30.7469C37.2625 34.6734 34.3875 37.4516 30.4609 38.9844C26.5344 40.5172 22.5109 40.5172 18.5828 38.9844C14.6562 37.5469 11.7828 34.7703 10.0578 30.7469H10.0594ZM41.7641 28.4484C30.2703 29.7891 18.775 29.7891 7.28125 28.4484C8.23906 32.4719 10.3469 35.7281 13.6031 38.3141C16.7641 40.9 20.4031 42.1453 24.5219 42.1453C28.6406 42.1453 32.2812 40.9 35.5375 38.3141C38.6984 35.7281 40.8062 32.4719 41.7641 28.4484Z" fill="black"/>
</g>
</svg>
