<svg width="15" height="21" viewBox="0 0 15 21" fill="none" xmlns="http://www.w3.org/2000/svg">
<path d="M7.64209 13.0988C8.70259 13.0976 9.71931 12.6758 10.4692 11.9259C11.2191 11.176 11.6409 10.1593 11.6421 9.09882V4.09882C11.6421 3.03795 11.2207 2.02053 10.4705 1.27039C9.72037 0.520243 8.70296 0.0988159 7.64209 0.0988159C6.58122 0.0988159 5.56381 0.520243 4.81366 1.27039C4.06352 2.02053 3.64209 3.03795 3.64209 4.09882V9.09882C3.64328 10.1593 4.06509 11.176 4.81498 11.9259C5.56487 12.6758 6.58159 13.0976 7.64209 13.0988ZM4.97542 4.09882C4.97542 3.39157 5.25637 2.71329 5.75647 2.2132C6.25657 1.7131 6.93485 1.43215 7.64209 1.43215C8.34933 1.43215 9.02761 1.7131 9.52771 2.2132C10.0278 2.71329 10.3088 3.39157 10.3088 4.09882V9.09882C10.3088 9.80606 10.0278 10.4843 9.52771 10.9844C9.02761 11.4845 8.34933 11.7655 7.64209 11.7655C6.93485 11.7655 6.25657 11.4845 5.75647 10.9844C5.25637 10.4843 4.97542 9.80606 4.97542 9.09882V4.09882Z" fill="black"/>
<path d="M13.6422 6.76549V9.09882C13.6422 12.4072 10.9505 15.0988 7.64217 15.0988C4.33384 15.0988 1.64217 12.4072 1.64217 9.09882V6.76549H0.308838V9.09882C0.308838 12.9177 3.24317 16.0636 6.9755 16.4015V20.0988H8.30884V16.4015C12.0412 16.0636 14.9755 12.9177 14.9755 9.09882V6.76549H13.6422Z" fill="black"/>
</svg>
