<svg width="25" height="25" viewBox="0 0 50 50" fill="none" xmlns="http://www.w3.org/2000/svg">
<g id="more">
<path id="Color" fill-rule="evenodd" clip-rule="evenodd" d="M28.7063 12.7063C27.9406 13.4719 26.9828 13.8562 25.9281 13.8562C24.8734 13.8562 23.9172 13.4734 23.15 12.7063C22.3844 11.9406 22 10.9828 22 9.92812C22 8.87344 22.3828 7.91719 23.15 7.15C23.9156 6.38437 24.8734 6 25.9281 6C26.9828 6 27.9391 6.38281 28.7063 7.15C29.4719 7.91562 29.8562 8.87344 29.8562 9.92812C29.8562 10.9828 29.4734 11.9391 28.7063 12.7063ZM28.7063 27.4578C27.9406 28.2234 26.9828 28.6078 25.9281 28.6078C24.8734 28.6078 23.9172 28.225 23.15 27.4578C22.3844 26.6922 22 25.7344 22 24.6797C22 23.625 22.3828 22.6687 23.15 21.9016C23.9156 21.1359 24.8734 20.7516 25.9281 20.7516C26.9828 20.7516 27.9391 21.1344 28.7063 21.9016C29.4719 22.6672 29.8562 23.625 29.8562 24.6797C29.8562 25.7344 29.4734 26.6906 28.7063 27.4578ZM28.7063 42.2078C27.9406 42.9734 26.9828 43.3578 25.9281 43.3578C24.8734 43.3578 23.9172 42.975 23.15 42.2078C22.3844 41.4422 22 40.4844 22 39.4297C22 38.375 22.3828 37.4187 23.15 36.6516C23.9156 35.8859 24.8734 35.5016 25.9281 35.5016C26.9828 35.5016 27.9391 35.8844 28.7063 36.6516C29.4719 37.4172 29.8562 38.375 29.8562 39.4297C29.8562 40.4844 29.4734 41.4406 28.7063 42.2078Z" fill="black"/>
</g>
</svg>
