<svg width="25" height="25" viewBox="0 0 50 50" fill="none" xmlns="http://www.w3.org/2000/svg">
<g id="paper-clip">
<path id="Color" fill-rule="evenodd" clip-rule="evenodd" d="M41.0453 23.2531C41.3328 23.2531 41.5234 23.3484 41.7156 23.5406C41.9078 23.7328 42.0031 23.9234 42.0031 24.2109C42.0031 24.4984 41.9078 24.6891 41.7156 24.8813L26.4859 40.1109C24.2828 42.2188 21.6969 43.2719 18.8234 43.2719C15.95 43.2719 13.3641 42.2188 11.1609 40.1109C9.05313 38.0031 8 35.5125 8 32.5438C8 29.6703 9.05313 27.0844 11.1609 24.8813L29.9344 6.29844C31.4672 4.76563 33.2875 4 35.4906 4C37.6938 4 39.5141 4.76563 41.0469 6.29844C42.5797 7.73594 43.3453 9.55469 43.3453 11.7578C43.3453 13.9609 42.5797 15.7812 41.0469 17.3141L23.7094 34.5547C22.7516 35.5125 21.6016 35.9922 20.2609 35.9922C19.0156 35.9922 17.7703 35.5141 16.7172 34.5547C15.7594 33.5969 15.2797 32.4469 15.2797 31.1063C15.2797 29.7656 15.7578 28.6156 16.7172 27.6578L33.3844 11.0875C33.5766 10.8953 33.8625 10.8 34.15 10.8C34.4375 10.8 34.6281 10.8953 34.8203 11.0875C35.0125 11.2797 35.1078 11.4703 35.1078 11.7578C35.1078 12.0453 35.0125 12.3328 34.8203 12.5234L18.1531 28.9984C17.5781 29.5734 17.2906 30.2438 17.2906 31.1063C17.2906 31.9688 17.5781 32.6391 18.1531 33.2141C18.7281 33.7891 19.3984 34.0766 20.2609 34.0766C21.0266 34.0766 21.6984 33.7891 22.2719 33.2141L39.7047 15.9734C40.8547 14.8234 41.4281 13.3875 41.4281 11.7594C41.4281 10.1313 40.8531 8.79063 39.7047 7.64062C38.4594 6.49062 37.0234 5.91719 35.4906 5.91719C33.8625 5.91719 32.5219 6.49219 31.3719 7.64062L12.5984 26.3188C10.875 27.9469 10.0125 29.9578 10.0125 32.5453C10.0125 35.0359 10.875 37.0469 12.5984 38.675C14.3219 40.3984 16.4297 41.2609 18.825 41.2609C21.4109 41.2609 23.4234 40.3984 25.0516 38.675L40.3766 23.5406C40.5688 23.3484 40.7594 23.2531 41.0469 23.2531H41.0453Z" fill="black"/>
</g>
</svg>
