<svg width="25" height="25" viewBox="0 0 50 50" fill="none" xmlns="http://www.w3.org/2000/svg">
<g id="reset">
<path id="Color" fill-rule="evenodd" clip-rule="evenodd" d="M39.9078 14.3344L40.0031 9.1625C40.0031 8.0125 40.5781 7.43906 41.6312 7.43906C42.7812 7.43906 43.3547 8.01406 43.3547 9.1625V19.0281C43.3547 20.0813 42.7797 20.6562 41.6312 20.6562H31.6703C30.6172 20.6562 30.0422 20.0813 30.0422 19.0281C30.0422 17.975 30.6172 17.4 31.6703 17.4H38.0875C36.8422 15.1969 35.1188 13.3766 33.1063 11.9406C30.5203 10.3125 27.7422 9.45 24.6766 9.45C20.4625 9.45 16.8219 10.9828 13.8531 13.9516C10.8844 16.9203 9.44688 20.4656 9.44688 24.6797C9.44688 28.8937 10.8844 32.4391 13.8531 35.4078C16.8219 38.3766 20.4625 39.9094 24.6766 39.9094C29.275 39.9094 33.1063 38.1859 36.075 34.8328L36.2672 34.6406C36.7453 34.3531 37.1297 34.1625 37.3203 34.1625C38.5656 34.1625 39.1406 34.7375 39.1406 35.8859C39.1406 36.3641 38.9484 36.7484 38.6625 36.9391C34.9266 41.25 30.3297 43.3563 24.6781 43.3563C19.6016 43.3563 15.1953 41.5359 11.4594 37.8969C7.82031 34.1609 6 29.7547 6 24.6781C6 19.6016 7.82031 15.1953 11.4594 11.4594C15.1953 7.82031 19.6016 6 24.6781 6C28.4141 6 31.8625 7.05313 35.0234 9.16094C36.6516 10.2141 38.2797 11.9391 39.9078 14.3328V14.3344Z" fill="black"/>
</g>
</svg>
