<svg width="25" height="25" viewBox="0 0 50 50" fill="none" xmlns="http://www.w3.org/2000/svg">
<g id="search">
<path id="Color" fill-rule="evenodd" clip-rule="evenodd" d="M36.9609 34.0891L46.7313 43.8594L46.8266 44.1469C47.1141 44.625 47.2094 45.0094 47.2094 45.2C47.2094 46.5406 46.5391 47.2109 45.1984 47.2109C44.8156 47.2109 44.3359 47.0187 43.8578 46.6359L34.1828 36.9609C30.5437 39.9297 26.4234 41.3672 21.7313 41.3672C16.2719 41.3672 11.6734 39.4516 7.84219 35.6203C3.91562 31.6937 2 27.0953 2 21.7313C2 16.3672 3.91562 11.7703 7.84219 7.84219C11.7688 3.91562 16.3672 2 21.7313 2C27.0953 2 31.6922 3.91562 35.6203 7.84219C39.4516 11.6734 41.3672 16.2719 41.3672 21.7313C41.3672 26.3297 39.9297 30.4484 36.9609 34.0875V34.0891ZM21.8266 37.4406C26.1375 37.4406 29.7766 35.9078 32.8422 32.8422C35.9078 29.7766 37.4406 26.1375 37.4406 21.8266C37.4406 17.5156 35.9078 13.7812 32.8422 10.7156C29.7766 7.65 26.1375 6.11719 21.8266 6.11719C17.5156 6.11719 13.7812 7.65 10.7156 10.7156C7.65 13.7812 6.11719 17.5172 6.11719 21.8266C6.11719 26.1375 7.65 29.7766 10.7156 32.8422C13.7812 35.9078 17.5156 37.4406 21.8266 37.4406Z" fill="black"/>
</g>
</svg>
