<svg width="25" height="25" viewBox="0 0 25 25" fill="none" xmlns="http://www.w3.org/2000/svg">
<path d="M12.5 0C5.59646 0 0 5.59646 0 12.5C0 19.4035 5.59646 25 12.5 25C19.4035 25 25 19.4035 25 12.5C25 5.59646 19.4035 0 12.5 0ZM20.1603 20.1603C18.2609 22.0541 15.7244 23.1729 13.0451 23.2987C10.3658 23.4244 7.73567 22.5482 5.66715 20.8407C3.59864 19.1332 2.23993 16.7167 1.85577 14.0621C1.47162 11.4075 2.08954 8.705 3.58912 6.48113C5.08871 4.25726 7.36254 2.67135 9.96756 2.03241C12.5726 1.39347 15.3222 1.74728 17.6806 3.02489C20.039 4.30251 21.8372 6.41241 22.725 8.94347C23.6127 11.4745 23.5263 14.2455 22.4827 16.7163C21.9387 18.0038 21.15 19.1734 20.1603 20.1603Z" fill="black"/>
<path d="M9.16659 9.58334H7.08325V11.6667H9.16659V9.58334Z" fill="black"/>
<path d="M17.9166 9.58334H15.8333V11.6667H17.9166V9.58334Z" fill="black"/>
<path d="M16.7859 15.1667C16.4636 15.9801 15.9036 16.6776 15.1791 17.1681C14.4545 17.6586 13.599 17.9195 12.724 17.9167H12.2761C11.4011 17.9195 10.5455 17.6587 9.82093 17.1681C9.09634 16.6776 8.53636 15.9801 8.214 15.1667L8.14738 15H6.35254L6.66671 15.7855C7.11514 16.9066 7.8892 17.8676 8.88904 18.5445C9.88889 19.2215 11.0686 19.5833 12.2761 19.5833H12.724C13.9314 19.5833 15.1112 19.2215 16.111 18.5445C17.1109 17.8676 17.8849 16.9066 18.3334 15.7855L18.6475 15H16.8525L16.7859 15.1667Z" fill="black"/>
</svg>
